<svg width="26" height="26" viewBox="0 0 26 26" fill="none" xmlns="http://www.w3.org/2000/svg">
<path d="M12.75 0.5C5.84644 0.5 0.25 6.09644 0.25 13C0.25 19.9036 5.84644 25.5 12.75 25.5C19.6536 25.5 25.25 19.9036 25.25 13C25.25 6.09644 19.6536 0.5 12.75 0.5ZM20.0855 17.5674L17.9293 17.597C17.9293 17.597 17.4655 17.6891 16.8569 17.2681C16.0494 16.7138 15.2895 15.2747 14.6974 15.4588C14.1053 15.643 14.1152 16.9391 14.1152 16.9391C14.1171 17.0911 14.0704 17.2398 13.982 17.3635C13.8575 17.4701 13.704 17.5371 13.5412 17.5559H12.5856C12.5856 17.5559 10.4475 17.6826 8.58066 15.7319C6.52803 13.6135 4.72046 9.38154 4.72046 9.38154C4.72046 9.38154 4.61401 9.13608 4.73032 8.97036C4.83086 8.8271 5.07881 8.81172 5.204 8.80591C5.7437 8.78066 7.36519 8.79111 7.36519 8.79111C7.50083 8.78774 7.59199 8.79487 7.75991 8.86841C7.90425 8.93975 8.01372 9.046 8.08394 9.21709C8.3334 9.83828 8.62295 10.4426 8.95073 11.0263C9.91455 12.6924 10.3636 13.0559 10.6909 12.8783C11.1662 12.6184 11.0198 10.5247 11.0198 10.5247C11.0198 10.5247 11.0198 9.76313 10.7797 9.42598C10.5989 9.2148 10.344 9.08115 10.0675 9.05264C9.9376 9.03452 10.1514 8.73354 10.4277 8.59868C10.8422 8.39473 11.5758 8.39473 12.4409 8.39473C12.8216 8.38037 13.2024 8.41914 13.5725 8.50986C14.3685 8.7023 14.0988 9.44243 14.0988 11.222C14.0988 11.7911 13.9952 12.5938 14.4063 12.8667C14.584 12.9802 15.0149 12.8832 16.0971 11.0477C16.4424 10.4402 16.742 9.80806 16.9935 9.1562C17.0419 9.05259 17.1154 8.96274 17.2073 8.89468C17.3045 8.84629 17.4137 8.82744 17.5215 8.84038L19.9491 8.82393C19.9491 8.82393 20.6777 8.73677 20.7961 9.06733C20.9146 9.39795 20.5231 10.2187 19.5313 11.5344C17.9031 13.7055 17.7221 13.5081 19.0741 14.7564C20.3652 15.9555 20.6333 16.5394 20.6777 16.6117C21.2138 17.4967 20.0855 17.5674 20.0855 17.5674Z" fill="#71b00a" />
</svg>
