<svg width="88" height="84" viewBox="0 0 88 84" fill="none" xmlns="http://www.w3.org/2000/svg">
<path d="M0.770508 0.357056H3.41145V2.88441H0.770508V0.357056ZM3.41145 0.357056H6.05239V2.88441H3.41145V0.357056ZM6.05239 0.357056H8.69333V2.88441H6.05239V0.357056ZM8.69333 0.357056H11.3343V2.88441H8.69333V0.357056ZM11.3343 0.357056H13.9752V2.88441H11.3343V0.357056ZM13.9752 0.357056H16.6162V2.88441H13.9752V0.357056ZM16.6162 0.357056H19.2571V2.88441H16.6162V0.357056ZM24.539 0.357056H27.1799V2.88441H24.539V0.357056ZM27.1799 0.357056H29.8209V2.88441H27.1799V0.357056ZM32.4618 0.357056H35.1027V2.88441H32.4618V0.357056ZM35.1027 0.357056H37.7437V2.88441H35.1027V0.357056ZM37.7437 0.357056H40.3846V2.88441H37.7437V0.357056ZM40.3846 0.357056H43.0256V2.88441H40.3846V0.357056ZM48.3074 0.357056H50.9484V2.88441H48.3074V0.357056ZM50.9484 0.357056H53.5893V2.88441H50.9484V0.357056ZM58.8712 0.357056H61.5121V2.88441H58.8712V0.357056ZM61.5121 0.357056H64.1531V2.88441H61.5121V0.357056ZM69.435 0.357056H72.0759V2.88441H69.435V0.357056ZM72.0759 0.357056H74.7169V2.88441H72.0759V0.357056ZM74.7169 0.357056H77.3578V2.88441H74.7169V0.357056ZM77.3578 0.357056H79.9987V2.88441H77.3578V0.357056ZM79.9987 0.357056H82.6397V2.88441H79.9987V0.357056ZM82.6397 0.357056H85.2806V2.88441H82.6397V0.357056ZM85.2806 0.357056H87.9216V2.88441H85.2806V0.357056ZM0.770508 2.88441H3.41145V5.41176H0.770508V2.88441ZM16.6162 2.88441H19.2571V5.41176H16.6162V2.88441ZM21.898 2.88441H24.539V5.41176H21.898V2.88441ZM32.4618 2.88441H35.1027V5.41176H32.4618V2.88441ZM40.3846 2.88441H43.0256V5.41176H40.3846V2.88441ZM45.6665 2.88441H48.3074V5.41176H45.6665V2.88441ZM53.5893 2.88441H56.2303V5.41176H53.5893V2.88441ZM56.2303 2.88441H58.8712V5.41176H56.2303V2.88441ZM58.8712 2.88441H61.5121V5.41176H58.8712V2.88441ZM61.5121 2.88441H64.1531V5.41176H61.5121V2.88441ZM69.435 2.88441H72.0759V5.41176H69.435V2.88441ZM85.2806 2.88441H87.9216V5.41176H85.2806V2.88441ZM0.770508 5.41176H3.41145V7.93911H0.770508V5.41176ZM6.05239 5.41176H8.69333V7.93911H6.05239V5.41176ZM8.69333 5.41176H11.3343V7.93911H8.69333V5.41176ZM11.3343 5.41176H13.9752V7.93911H11.3343V5.41176ZM16.6162 5.41176H19.2571V7.93911H16.6162V5.41176ZM21.898 5.41176H24.539V7.93911H21.898V5.41176ZM27.1799 5.41176H29.8209V7.93911H27.1799V5.41176ZM29.8209 5.41176H32.4618V7.93911H29.8209V5.41176ZM35.1027 5.41176H37.7437V7.93911H35.1027V5.41176ZM40.3846 5.41176H43.0256V7.93911H40.3846V5.41176ZM48.3074 5.41176H50.9484V7.93911H48.3074V5.41176ZM50.9484 5.41176H53.5893V7.93911H50.9484V5.41176ZM53.5893 5.41176H56.2303V7.93911H53.5893V5.41176ZM61.5121 5.41176H64.1531V7.93911H61.5121V5.41176ZM64.1531 5.41176H66.794V7.93911H64.1531V5.41176ZM69.435 5.41176H72.0759V7.93911H69.435V5.41176ZM74.7169 5.41176H77.3578V7.93911H74.7169V5.41176ZM77.3578 5.41176H79.9987V7.93911H77.3578V5.41176ZM79.9987 5.41176H82.6397V7.93911H79.9987V5.41176ZM85.2806 5.41176H87.9216V7.93911H85.2806V5.41176ZM0.770508 7.93911H3.41145V10.4665H0.770508V7.93911ZM6.05239 7.93911H8.69333V10.4665H6.05239V7.93911ZM8.69333 7.93911H11.3343V10.4665H8.69333V7.93911ZM11.3343 7.93911H13.9752V10.4665H11.3343V7.93911ZM16.6162 7.93911H19.2571V10.4665H16.6162V7.93911ZM32.4618 7.93911H35.1027V10.4665H32.4618V7.93911ZM35.1027 7.93911H37.7437V10.4665H35.1027V7.93911ZM37.7437 7.93911H40.3846V10.4665H37.7437V7.93911ZM48.3074 7.93911H50.9484V10.4665H48.3074V7.93911ZM58.8712 7.93911H61.5121V10.4665H58.8712V7.93911ZM64.1531 7.93911H66.794V10.4665H64.1531V7.93911ZM69.435 7.93911H72.0759V10.4665H69.435V7.93911ZM74.7169 7.93911H77.3578V10.4665H74.7169V7.93911ZM77.3578 7.93911H79.9987V10.4665H77.3578V7.93911ZM79.9987 7.93911H82.6397V10.4665H79.9987V7.93911ZM85.2806 7.93911H87.9216V10.4665H85.2806V7.93911ZM0.770508 10.4665H3.41145V12.9938H0.770508V10.4665ZM6.05239 10.4665H8.69333V12.9938H6.05239V10.4665ZM8.69333 10.4665H11.3343V12.9938H8.69333V10.4665ZM11.3343 10.4665H13.9752V12.9938H11.3343V10.4665ZM16.6162 10.4665H19.2571V12.9938H16.6162V10.4665ZM27.1799 10.4665H29.8209V12.9938H27.1799V10.4665ZM29.8209 10.4665H32.4618V12.9938H29.8209V10.4665ZM35.1027 10.4665H37.7437V12.9938H35.1027V10.4665ZM40.3846 10.4665H43.0256V12.9938H40.3846V10.4665ZM43.0256 10.4665H45.6665V12.9938H43.0256V10.4665ZM48.3074 10.4665H50.9484V12.9938H48.3074V10.4665ZM58.8712 10.4665H61.5121V12.9938H58.8712V10.4665ZM64.1531 10.4665H66.794V12.9938H64.1531V10.4665ZM69.435 10.4665H72.0759V12.9938H69.435V10.4665ZM74.7169 10.4665H77.3578V12.9938H74.7169V10.4665ZM77.3578 10.4665H79.9987V12.9938H77.3578V10.4665ZM79.9987 10.4665H82.6397V12.9938H79.9987V10.4665ZM85.2806 10.4665H87.9216V12.9938H85.2806V10.4665ZM0.770508 12.9938H3.41145V15.5212H0.770508V12.9938ZM16.6162 12.9938H19.2571V15.5212H16.6162V12.9938ZM27.1799 12.9938H29.8209V15.5212H27.1799V12.9938ZM29.8209 12.9938H32.4618V15.5212H29.8209V12.9938ZM37.7437 12.9938H40.3846V15.5212H37.7437V12.9938ZM45.6665 12.9938H48.3074V15.5212H45.6665V12.9938ZM48.3074 12.9938H50.9484V15.5212H48.3074V12.9938ZM58.8712 12.9938H61.5121V15.5212H58.8712V12.9938ZM69.435 12.9938H72.0759V15.5212H69.435V12.9938ZM85.2806 12.9938H87.9216V15.5212H85.2806V12.9938ZM0.770508 15.5212H3.41145V18.0485H0.770508V15.5212ZM3.41145 15.5212H6.05239V18.0485H3.41145V15.5212ZM6.05239 15.5212H8.69333V18.0485H6.05239V15.5212ZM8.69333 15.5212H11.3343V18.0485H8.69333V15.5212ZM11.3343 15.5212H13.9752V18.0485H11.3343V15.5212ZM13.9752 15.5212H16.6162V18.0485H13.9752V15.5212ZM16.6162 15.5212H19.2571V18.0485H16.6162V15.5212ZM21.898 15.5212H24.539V18.0485H21.898V15.5212ZM27.1799 15.5212H29.8209V18.0485H27.1799V15.5212ZM32.4618 15.5212H35.1027V18.0485H32.4618V15.5212ZM37.7437 15.5212H40.3846V18.0485H37.7437V15.5212ZM43.0256 15.5212H45.6665V18.0485H43.0256V15.5212ZM48.3074 15.5212H50.9484V18.0485H48.3074V15.5212ZM53.5893 15.5212H56.2303V18.0485H53.5893V15.5212ZM58.8712 15.5212H61.5121V18.0485H58.8712V15.5212ZM64.1531 15.5212H66.794V18.0485H64.1531V15.5212ZM69.435 15.5212H72.0759V18.0485H69.435V15.5212ZM72.0759 15.5212H74.7169V18.0485H72.0759V15.5212ZM74.7169 15.5212H77.3578V18.0485H74.7169V15.5212ZM77.3578 15.5212H79.9987V18.0485H77.3578V15.5212ZM79.9987 15.5212H82.6397V18.0485H79.9987V15.5212ZM82.6397 15.5212H85.2806V18.0485H82.6397V15.5212ZM85.2806 15.5212H87.9216V18.0485H85.2806V15.5212ZM32.4618 18.0485H35.1027V20.5759H32.4618V18.0485ZM35.1027 18.0485H37.7437V20.5759H35.1027V18.0485ZM37.7437 18.0485H40.3846V20.5759H37.7437V18.0485ZM40.3846 18.0485H43.0256V20.5759H40.3846V18.0485ZM45.6665 18.0485H48.3074V20.5759H45.6665V18.0485ZM50.9484 18.0485H53.5893V20.5759H50.9484V18.0485ZM64.1531 18.0485H66.794V20.5759H64.1531V18.0485ZM3.41145 20.5759H6.05239V23.1032H3.41145V20.5759ZM6.05239 20.5759H8.69333V23.1032H6.05239V20.5759ZM8.69333 20.5759H11.3343V23.1032H8.69333V20.5759ZM13.9752 20.5759H16.6162V23.1032H13.9752V20.5759ZM16.6162 20.5759H19.2571V23.1032H16.6162V20.5759ZM27.1799 20.5759H29.8209V23.1032H27.1799V20.5759ZM37.7437 20.5759H40.3846V23.1032H37.7437V20.5759ZM40.3846 20.5759H43.0256V23.1032H40.3846V20.5759ZM45.6665 20.5759H48.3074V23.1032H45.6665V20.5759ZM48.3074 20.5759H50.9484V23.1032H48.3074V20.5759ZM53.5893 20.5759H56.2303V23.1032H53.5893V20.5759ZM56.2303 20.5759H58.8712V23.1032H56.2303V20.5759ZM64.1531 20.5759H66.794V23.1032H64.1531V20.5759ZM79.9987 20.5759H82.6397V23.1032H79.9987V20.5759ZM82.6397 20.5759H85.2806V23.1032H82.6397V20.5759ZM8.69333 23.1032H11.3343V25.6306H8.69333V23.1032ZM11.3343 23.1032H13.9752V25.6306H11.3343V23.1032ZM19.2571 23.1032H21.898V25.6306H19.2571V23.1032ZM24.539 23.1032H27.1799V25.6306H24.539V23.1032ZM35.1027 23.1032H37.7437V25.6306H35.1027V23.1032ZM37.7437 23.1032H40.3846V25.6306H37.7437V23.1032ZM43.0256 23.1032H45.6665V25.6306H43.0256V23.1032ZM45.6665 23.1032H48.3074V25.6306H45.6665V23.1032ZM48.3074 23.1032H50.9484V25.6306H48.3074V23.1032ZM50.9484 23.1032H53.5893V25.6306H50.9484V23.1032ZM53.5893 23.1032H56.2303V25.6306H53.5893V23.1032ZM56.2303 23.1032H58.8712V25.6306H56.2303V23.1032ZM61.5121 23.1032H64.1531V25.6306H61.5121V23.1032ZM69.435 23.1032H72.0759V25.6306H69.435V23.1032ZM72.0759 23.1032H74.7169V25.6306H72.0759V23.1032ZM77.3578 23.1032H79.9987V25.6306H77.3578V23.1032ZM79.9987 23.1032H82.6397V25.6306H79.9987V23.1032ZM85.2806 23.1032H87.9216V25.6306H85.2806V23.1032ZM0.770508 25.6306H3.41145V28.1579H0.770508V25.6306ZM3.41145 25.6306H6.05239V28.1579H3.41145V25.6306ZM8.69333 25.6306H11.3343V28.1579H8.69333V25.6306ZM11.3343 25.6306H13.9752V28.1579H11.3343V25.6306ZM13.9752 25.6306H16.6162V28.1579H13.9752V25.6306ZM16.6162 25.6306H19.2571V28.1579H16.6162V25.6306ZM27.1799 25.6306H29.8209V28.1579H27.1799V25.6306ZM29.8209 25.6306H32.4618V28.1579H29.8209V25.6306ZM35.1027 25.6306H37.7437V28.1579H35.1027V25.6306ZM43.0256 25.6306H45.6665V28.1579H43.0256V25.6306ZM48.3074 25.6306H50.9484V28.1579H48.3074V25.6306ZM56.2303 25.6306H58.8712V28.1579H56.2303V25.6306ZM61.5121 25.6306H64.1531V28.1579H61.5121V25.6306ZM64.1531 25.6306H66.794V28.1579H64.1531V25.6306ZM66.794 25.6306H69.435V28.1579H66.794V25.6306ZM72.0759 25.6306H74.7169V28.1579H72.0759V25.6306ZM74.7169 25.6306H77.3578V28.1579H74.7169V25.6306ZM77.3578 25.6306H79.9987V28.1579H77.3578V25.6306ZM85.2806 25.6306H87.9216V28.1579H85.2806V25.6306ZM6.05239 28.1579H8.69333V30.6853H6.05239V28.1579ZM21.898 28.1579H24.539V30.6853H21.898V28.1579ZM24.539 28.1579H27.1799V30.6853H24.539V28.1579ZM27.1799 28.1579H29.8209V30.6853H27.1799V28.1579ZM29.8209 28.1579H32.4618V30.6853H29.8209V28.1579ZM32.4618 28.1579H35.1027V30.6853H32.4618V28.1579ZM35.1027 28.1579H37.7437V30.6853H35.1027V28.1579ZM37.7437 28.1579H40.3846V30.6853H37.7437V28.1579ZM40.3846 28.1579H43.0256V30.6853H40.3846V28.1579ZM45.6665 28.1579H48.3074V30.6853H45.6665V28.1579ZM50.9484 28.1579H53.5893V30.6853H50.9484V28.1579ZM53.5893 28.1579H56.2303V30.6853H53.5893V28.1579ZM58.8712 28.1579H61.5121V30.6853H58.8712V28.1579ZM64.1531 28.1579H66.794V30.6853H64.1531V28.1579ZM69.435 28.1579H72.0759V30.6853H69.435V28.1579ZM72.0759 28.1579H74.7169V30.6853H72.0759V28.1579ZM77.3578 28.1579H79.9987V30.6853H77.3578V28.1579ZM0.770508 30.6853H3.41145V33.2126H0.770508V30.6853ZM3.41145 30.6853H6.05239V33.2126H3.41145V30.6853ZM6.05239 30.6853H8.69333V33.2126H6.05239V30.6853ZM13.9752 30.6853H16.6162V33.2126H13.9752V30.6853ZM16.6162 30.6853H19.2571V33.2126H16.6162V30.6853ZM19.2571 30.6853H21.898V33.2126H19.2571V30.6853ZM24.539 30.6853H27.1799V33.2126H24.539V30.6853ZM27.1799 30.6853H29.8209V33.2126H27.1799V30.6853ZM40.3846 30.6853H43.0256V33.2126H40.3846V30.6853ZM53.5893 30.6853H56.2303V33.2126H53.5893V30.6853ZM58.8712 30.6853H61.5121V33.2126H58.8712V30.6853ZM64.1531 30.6853H66.794V33.2126H64.1531V30.6853ZM66.794 30.6853H69.435V33.2126H66.794V30.6853ZM72.0759 30.6853H74.7169V33.2126H72.0759V30.6853ZM74.7169 30.6853H77.3578V33.2126H74.7169V30.6853ZM77.3578 30.6853H79.9987V33.2126H77.3578V30.6853ZM82.6397 30.6853H85.2806V33.2126H82.6397V30.6853ZM85.2806 30.6853H87.9216V33.2126H85.2806V30.6853ZM8.69333 33.2126H11.3343V35.74H8.69333V33.2126ZM13.9752 33.2126H16.6162V35.74H13.9752V33.2126ZM19.2571 33.2126H21.898V35.74H19.2571V33.2126ZM24.539 33.2126H27.1799V35.74H24.539V33.2126ZM27.1799 33.2126H29.8209V35.74H27.1799V33.2126ZM29.8209 33.2126H32.4618V35.74H29.8209V33.2126ZM32.4618 33.2126H35.1027V35.74H32.4618V33.2126ZM37.7437 33.2126H40.3846V35.74H37.7437V33.2126ZM43.0256 33.2126H45.6665V35.74H43.0256V33.2126ZM53.5893 33.2126H56.2303V35.74H53.5893V33.2126ZM56.2303 33.2126H58.8712V35.74H56.2303V33.2126ZM64.1531 33.2126H66.794V35.74H64.1531V33.2126ZM66.794 33.2126H69.435V35.74H66.794V33.2126ZM79.9987 33.2126H82.6397V35.74H79.9987V33.2126ZM82.6397 33.2126H85.2806V35.74H82.6397V33.2126ZM3.41145 35.74H6.05239V38.2673H3.41145V35.74ZM6.05239 35.74H8.69333V38.2673H6.05239V35.74ZM16.6162 35.74H19.2571V38.2673H16.6162V35.74ZM27.1799 35.74H29.8209V38.2673H27.1799V35.74ZM32.4618 35.74H35.1027V38.2673H32.4618V35.74ZM35.1027 35.74H37.7437V38.2673H35.1027V35.74ZM40.3846 35.74H43.0256V38.2673H40.3846V35.74ZM45.6665 35.74H48.3074V38.2673H45.6665V35.74ZM50.9484 35.74H53.5893V38.2673H50.9484V35.74ZM53.5893 35.74H56.2303V38.2673H53.5893V35.74ZM56.2303 35.74H58.8712V38.2673H56.2303V35.74ZM69.435 35.74H72.0759V38.2673H69.435V35.74ZM72.0759 35.74H74.7169V38.2673H72.0759V35.74ZM77.3578 35.74H79.9987V38.2673H77.3578V35.74ZM79.9987 35.74H82.6397V38.2673H79.9987V35.74ZM0.770508 38.2673H3.41145V40.7947H0.770508V38.2673ZM8.69333 38.2673H11.3343V40.7947H8.69333V38.2673ZM21.898 38.2673H24.539V40.7947H21.898V38.2673ZM27.1799 38.2673H29.8209V40.7947H27.1799V38.2673ZM35.1027 38.2673H37.7437V40.7947H35.1027V38.2673ZM37.7437 38.2673H40.3846V40.7947H37.7437V38.2673ZM43.0256 38.2673H45.6665V40.7947H43.0256V38.2673ZM45.6665 38.2673H48.3074V40.7947H45.6665V38.2673ZM48.3074 38.2673H50.9484V40.7947H48.3074V38.2673ZM56.2303 38.2673H58.8712V40.7947H56.2303V38.2673ZM66.794 38.2673H69.435V40.7947H66.794V38.2673ZM69.435 38.2673H72.0759V40.7947H69.435V38.2673ZM72.0759 38.2673H74.7169V40.7947H72.0759V38.2673ZM74.7169 38.2673H77.3578V40.7947H74.7169V38.2673ZM77.3578 38.2673H79.9987V40.7947H77.3578V38.2673ZM79.9987 38.2673H82.6397V40.7947H79.9987V38.2673ZM3.41145 40.7947H6.05239V43.322H3.41145V40.7947ZM6.05239 40.7947H8.69333V43.322H6.05239V40.7947ZM8.69333 40.7947H11.3343V43.322H8.69333V40.7947ZM13.9752 40.7947H16.6162V43.322H13.9752V40.7947ZM16.6162 40.7947H19.2571V43.322H16.6162V40.7947ZM19.2571 40.7947H21.898V43.322H19.2571V40.7947ZM21.898 40.7947H24.539V43.322H21.898V40.7947ZM24.539 40.7947H27.1799V43.322H24.539V40.7947ZM27.1799 40.7947H29.8209V43.322H27.1799V40.7947ZM29.8209 40.7947H32.4618V43.322H29.8209V40.7947ZM32.4618 40.7947H35.1027V43.322H32.4618V40.7947ZM35.1027 40.7947H37.7437V43.322H35.1027V40.7947ZM40.3846 40.7947H43.0256V43.322H40.3846V40.7947ZM43.0256 40.7947H45.6665V43.322H43.0256V40.7947ZM53.5893 40.7947H56.2303V43.322H53.5893V40.7947ZM56.2303 40.7947H58.8712V43.322H56.2303V40.7947ZM58.8712 40.7947H61.5121V43.322H58.8712V40.7947ZM61.5121 40.7947H64.1531V43.322H61.5121V40.7947ZM66.794 40.7947H69.435V43.322H66.794V40.7947ZM69.435 40.7947H72.0759V43.322H69.435V40.7947ZM74.7169 40.7947H77.3578V43.322H74.7169V40.7947ZM77.3578 40.7947H79.9987V43.322H77.3578V40.7947ZM79.9987 40.7947H82.6397V43.322H79.9987V40.7947ZM0.770508 43.322H3.41145V45.8494H0.770508V43.322ZM3.41145 43.322H6.05239V45.8494H3.41145V43.322ZM8.69333 43.322H11.3343V45.8494H8.69333V43.322ZM11.3343 43.322H13.9752V45.8494H11.3343V43.322ZM13.9752 43.322H16.6162V45.8494H13.9752V43.322ZM27.1799 43.322H29.8209V45.8494H27.1799V43.322ZM40.3846 43.322H43.0256V45.8494H40.3846V43.322ZM45.6665 43.322H48.3074V45.8494H45.6665V43.322ZM48.3074 43.322H50.9484V45.8494H48.3074V43.322ZM53.5893 43.322H56.2303V45.8494H53.5893V43.322ZM56.2303 43.322H58.8712V45.8494H56.2303V43.322ZM61.5121 43.322H64.1531V45.8494H61.5121V43.322ZM64.1531 43.322H66.794V45.8494H64.1531V43.322ZM66.794 43.322H69.435V45.8494H66.794V43.322ZM69.435 43.322H72.0759V45.8494H69.435V43.322ZM74.7169 43.322H77.3578V45.8494H74.7169V43.322ZM77.3578 43.322H79.9987V45.8494H77.3578V43.322ZM82.6397 43.322H85.2806V45.8494H82.6397V43.322ZM85.2806 43.322H87.9216V45.8494H85.2806V43.322ZM0.770508 45.8494H3.41145V48.3767H0.770508V45.8494ZM3.41145 45.8494H6.05239V48.3767H3.41145V45.8494ZM6.05239 45.8494H8.69333V48.3767H6.05239V45.8494ZM8.69333 45.8494H11.3343V48.3767H8.69333V45.8494ZM13.9752 45.8494H16.6162V48.3767H13.9752V45.8494ZM16.6162 45.8494H19.2571V48.3767H16.6162V45.8494ZM32.4618 45.8494H35.1027V48.3767H32.4618V45.8494ZM37.7437 45.8494H40.3846V48.3767H37.7437V45.8494ZM40.3846 45.8494H43.0256V48.3767H40.3846V45.8494ZM43.0256 45.8494H45.6665V48.3767H43.0256V45.8494ZM45.6665 45.8494H48.3074V48.3767H45.6665V45.8494ZM56.2303 45.8494H58.8712V48.3767H56.2303V45.8494ZM58.8712 45.8494H61.5121V48.3767H58.8712V45.8494ZM72.0759 45.8494H74.7169V48.3767H72.0759V45.8494ZM74.7169 45.8494H77.3578V48.3767H74.7169V45.8494ZM79.9987 45.8494H82.6397V48.3767H79.9987V45.8494ZM82.6397 45.8494H85.2806V48.3767H82.6397V45.8494ZM0.770508 48.3767H3.41145V50.9041H0.770508V48.3767ZM3.41145 48.3767H6.05239V50.9041H3.41145V48.3767ZM8.69333 48.3767H11.3343V50.9041H8.69333V48.3767ZM11.3343 48.3767H13.9752V50.9041H11.3343V48.3767ZM19.2571 48.3767H21.898V50.9041H19.2571V48.3767ZM21.898 48.3767H24.539V50.9041H21.898V48.3767ZM27.1799 48.3767H29.8209V50.9041H27.1799V48.3767ZM29.8209 48.3767H32.4618V50.9041H29.8209V48.3767ZM32.4618 48.3767H35.1027V50.9041H32.4618V48.3767ZM37.7437 48.3767H40.3846V50.9041H37.7437V48.3767ZM40.3846 48.3767H43.0256V50.9041H40.3846V48.3767ZM45.6665 48.3767H48.3074V50.9041H45.6665V48.3767ZM48.3074 48.3767H50.9484V50.9041H48.3074V48.3767ZM50.9484 48.3767H53.5893V50.9041H50.9484V48.3767ZM58.8712 48.3767H61.5121V50.9041H58.8712V48.3767ZM61.5121 48.3767H64.1531V50.9041H61.5121V48.3767ZM64.1531 48.3767H66.794V50.9041H64.1531V48.3767ZM69.435 48.3767H72.0759V50.9041H69.435V48.3767ZM74.7169 48.3767H77.3578V50.9041H74.7169V48.3767ZM82.6397 48.3767H85.2806V50.9041H82.6397V48.3767ZM3.41145 50.9041H6.05239V53.4314H3.41145V50.9041ZM8.69333 50.9041H11.3343V53.4314H8.69333V50.9041ZM16.6162 50.9041H19.2571V53.4314H16.6162V50.9041ZM24.539 50.9041H27.1799V53.4314H24.539V50.9041ZM37.7437 50.9041H40.3846V53.4314H37.7437V50.9041ZM45.6665 50.9041H48.3074V53.4314H45.6665V50.9041ZM58.8712 50.9041H61.5121V53.4314H58.8712V50.9041ZM64.1531 50.9041H66.794V53.4314H64.1531V50.9041ZM77.3578 50.9041H79.9987V53.4314H77.3578V50.9041ZM79.9987 50.9041H82.6397V53.4314H79.9987V50.9041ZM85.2806 50.9041H87.9216V53.4314H85.2806V50.9041ZM0.770508 53.4314H3.41145V55.9588H0.770508V53.4314ZM8.69333 53.4314H11.3343V55.9588H8.69333V53.4314ZM11.3343 53.4314H13.9752V55.9588H11.3343V53.4314ZM19.2571 53.4314H21.898V55.9588H19.2571V53.4314ZM21.898 53.4314H24.539V55.9588H21.898V53.4314ZM32.4618 53.4314H35.1027V55.9588H32.4618V53.4314ZM35.1027 53.4314H37.7437V55.9588H35.1027V53.4314ZM53.5893 53.4314H56.2303V55.9588H53.5893V53.4314ZM56.2303 53.4314H58.8712V55.9588H56.2303V53.4314ZM61.5121 53.4314H64.1531V55.9588H61.5121V53.4314ZM69.435 53.4314H72.0759V55.9588H69.435V53.4314ZM77.3578 53.4314H79.9987V55.9588H77.3578V53.4314ZM85.2806 53.4314H87.9216V55.9588H85.2806V53.4314ZM6.05239 55.9588H8.69333V58.4862H6.05239V55.9588ZM8.69333 55.9588H11.3343V58.4862H8.69333V55.9588ZM16.6162 55.9588H19.2571V58.4862H16.6162V55.9588ZM19.2571 55.9588H21.898V58.4862H19.2571V55.9588ZM35.1027 55.9588H37.7437V58.4862H35.1027V55.9588ZM40.3846 55.9588H43.0256V58.4862H40.3846V55.9588ZM50.9484 55.9588H53.5893V58.4862H50.9484V55.9588ZM53.5893 55.9588H56.2303V58.4862H53.5893V55.9588ZM61.5121 55.9588H64.1531V58.4862H61.5121V55.9588ZM64.1531 55.9588H66.794V58.4862H64.1531V55.9588ZM66.794 55.9588H69.435V58.4862H66.794V55.9588ZM69.435 55.9588H72.0759V58.4862H69.435V55.9588ZM74.7169 55.9588H77.3578V58.4862H74.7169V55.9588ZM77.3578 55.9588H79.9987V58.4862H77.3578V55.9588ZM82.6397 55.9588H85.2806V58.4862H82.6397V55.9588ZM85.2806 55.9588H87.9216V58.4862H85.2806V55.9588ZM3.41145 58.4862H6.05239V61.0135H3.41145V58.4862ZM8.69333 58.4862H11.3343V61.0135H8.69333V58.4862ZM11.3343 58.4862H13.9752V61.0135H11.3343V58.4862ZM13.9752 58.4862H16.6162V61.0135H13.9752V58.4862ZM24.539 58.4862H27.1799V61.0135H24.539V58.4862ZM27.1799 58.4862H29.8209V61.0135H27.1799V58.4862ZM29.8209 58.4862H32.4618V61.0135H29.8209V58.4862ZM37.7437 58.4862H40.3846V61.0135H37.7437V58.4862ZM48.3074 58.4862H50.9484V61.0135H48.3074V58.4862ZM53.5893 58.4862H56.2303V61.0135H53.5893V58.4862ZM58.8712 58.4862H61.5121V61.0135H58.8712V58.4862ZM66.794 58.4862H69.435V61.0135H66.794V58.4862ZM69.435 58.4862H72.0759V61.0135H69.435V58.4862ZM72.0759 58.4862H74.7169V61.0135H72.0759V58.4862ZM77.3578 58.4862H79.9987V61.0135H77.3578V58.4862ZM85.2806 58.4862H87.9216V61.0135H85.2806V58.4862ZM0.770508 61.0135H3.41145V63.5409H0.770508V61.0135ZM8.69333 61.0135H11.3343V63.5409H8.69333V61.0135ZM11.3343 61.0135H13.9752V63.5409H11.3343V61.0135ZM13.9752 61.0135H16.6162V63.5409H13.9752V61.0135ZM16.6162 61.0135H19.2571V63.5409H16.6162V61.0135ZM21.898 61.0135H24.539V63.5409H21.898V61.0135ZM27.1799 61.0135H29.8209V63.5409H27.1799V61.0135ZM37.7437 61.0135H40.3846V63.5409H37.7437V61.0135ZM40.3846 61.0135H43.0256V63.5409H40.3846V61.0135ZM43.0256 61.0135H45.6665V63.5409H43.0256V61.0135ZM45.6665 61.0135H48.3074V63.5409H45.6665V61.0135ZM48.3074 61.0135H50.9484V63.5409H48.3074V61.0135ZM50.9484 61.0135H53.5893V63.5409H50.9484V61.0135ZM58.8712 61.0135H61.5121V63.5409H58.8712V61.0135ZM64.1531 61.0135H66.794V63.5409H64.1531V61.0135ZM66.794 61.0135H69.435V63.5409H66.794V61.0135ZM69.435 61.0135H72.0759V63.5409H69.435V61.0135ZM72.0759 61.0135H74.7169V63.5409H72.0759V61.0135ZM74.7169 61.0135H77.3578V63.5409H74.7169V61.0135ZM82.6397 61.0135H85.2806V63.5409H82.6397V61.0135ZM21.898 63.5409H24.539V66.0682H21.898V63.5409ZM24.539 63.5409H27.1799V66.0682H24.539V63.5409ZM40.3846 63.5409H43.0256V66.0682H40.3846V63.5409ZM45.6665 63.5409H48.3074V66.0682H45.6665V63.5409ZM50.9484 63.5409H53.5893V66.0682H50.9484V63.5409ZM56.2303 63.5409H58.8712V66.0682H56.2303V63.5409ZM61.5121 63.5409H64.1531V66.0682H61.5121V63.5409ZM64.1531 63.5409H66.794V66.0682H64.1531V63.5409ZM74.7169 63.5409H77.3578V66.0682H74.7169V63.5409ZM77.3578 63.5409H79.9987V66.0682H77.3578V63.5409ZM0.770508 66.0682H3.41145V68.5956H0.770508V66.0682ZM3.41145 66.0682H6.05239V68.5956H3.41145V66.0682ZM6.05239 66.0682H8.69333V68.5956H6.05239V66.0682ZM8.69333 66.0682H11.3343V68.5956H8.69333V66.0682ZM11.3343 66.0682H13.9752V68.5956H11.3343V66.0682ZM13.9752 66.0682H16.6162V68.5956H13.9752V66.0682ZM16.6162 66.0682H19.2571V68.5956H16.6162V66.0682ZM32.4618 66.0682H35.1027V68.5956H32.4618V66.0682ZM35.1027 66.0682H37.7437V68.5956H35.1027V66.0682ZM37.7437 66.0682H40.3846V68.5956H37.7437V66.0682ZM50.9484 66.0682H53.5893V68.5956H50.9484V66.0682ZM53.5893 66.0682H56.2303V68.5956H53.5893V66.0682ZM56.2303 66.0682H58.8712V68.5956H56.2303V66.0682ZM61.5121 66.0682H64.1531V68.5956H61.5121V66.0682ZM64.1531 66.0682H66.794V68.5956H64.1531V66.0682ZM69.435 66.0682H72.0759V68.5956H69.435V66.0682ZM74.7169 66.0682H77.3578V68.5956H74.7169V66.0682ZM0.770508 68.5956H3.41145V71.1229H0.770508V68.5956ZM16.6162 68.5956H19.2571V71.1229H16.6162V68.5956ZM21.898 68.5956H24.539V71.1229H21.898V68.5956ZM24.539 68.5956H27.1799V71.1229H24.539V68.5956ZM27.1799 68.5956H29.8209V71.1229H27.1799V68.5956ZM32.4618 68.5956H35.1027V71.1229H32.4618V68.5956ZM43.0256 68.5956H45.6665V71.1229H43.0256V68.5956ZM61.5121 68.5956H64.1531V71.1229H61.5121V68.5956ZM64.1531 68.5956H66.794V71.1229H64.1531V68.5956ZM74.7169 68.5956H77.3578V71.1229H74.7169V68.5956ZM77.3578 68.5956H79.9987V71.1229H77.3578V68.5956ZM79.9987 68.5956H82.6397V71.1229H79.9987V68.5956ZM82.6397 68.5956H85.2806V71.1229H82.6397V68.5956ZM85.2806 68.5956H87.9216V71.1229H85.2806V68.5956ZM0.770508 71.1229H3.41145V73.6503H0.770508V71.1229ZM6.05239 71.1229H8.69333V73.6503H6.05239V71.1229ZM8.69333 71.1229H11.3343V73.6503H8.69333V71.1229ZM11.3343 71.1229H13.9752V73.6503H11.3343V71.1229ZM16.6162 71.1229H19.2571V73.6503H16.6162V71.1229ZM35.1027 71.1229H37.7437V73.6503H35.1027V71.1229ZM37.7437 71.1229H40.3846V73.6503H37.7437V71.1229ZM58.8712 71.1229H61.5121V73.6503H58.8712V71.1229ZM61.5121 71.1229H64.1531V73.6503H61.5121V71.1229ZM64.1531 71.1229H66.794V73.6503H64.1531V71.1229ZM66.794 71.1229H69.435V73.6503H66.794V71.1229ZM69.435 71.1229H72.0759V73.6503H69.435V71.1229ZM72.0759 71.1229H74.7169V73.6503H72.0759V71.1229ZM74.7169 71.1229H77.3578V73.6503H74.7169V71.1229ZM79.9987 71.1229H82.6397V73.6503H79.9987V71.1229ZM85.2806 71.1229H87.9216V73.6503H85.2806V71.1229ZM0.770508 73.6503H3.41145V76.1776H0.770508V73.6503ZM6.05239 73.6503H8.69333V76.1776H6.05239V73.6503ZM8.69333 73.6503H11.3343V76.1776H8.69333V73.6503ZM11.3343 73.6503H13.9752V76.1776H11.3343V73.6503ZM16.6162 73.6503H19.2571V76.1776H16.6162V73.6503ZM21.898 73.6503H24.539V76.1776H21.898V73.6503ZM24.539 73.6503H27.1799V76.1776H24.539V73.6503ZM32.4618 73.6503H35.1027V76.1776H32.4618V73.6503ZM35.1027 73.6503H37.7437V76.1776H35.1027V73.6503ZM40.3846 73.6503H43.0256V76.1776H40.3846V73.6503ZM48.3074 73.6503H50.9484V76.1776H48.3074V73.6503ZM50.9484 73.6503H53.5893V76.1776H50.9484V73.6503ZM56.2303 73.6503H58.8712V76.1776H56.2303V73.6503ZM58.8712 73.6503H61.5121V76.1776H58.8712V73.6503ZM64.1531 73.6503H66.794V76.1776H64.1531V73.6503ZM72.0759 73.6503H74.7169V76.1776H72.0759V73.6503ZM79.9987 73.6503H82.6397V76.1776H79.9987V73.6503ZM82.6397 73.6503H85.2806V76.1776H82.6397V73.6503ZM85.2806 73.6503H87.9216V76.1776H85.2806V73.6503ZM0.770508 76.1776H3.41145V78.705H0.770508V76.1776ZM6.05239 76.1776H8.69333V78.705H6.05239V76.1776ZM8.69333 76.1776H11.3343V78.705H8.69333V76.1776ZM11.3343 76.1776H13.9752V78.705H11.3343V76.1776ZM16.6162 76.1776H19.2571V78.705H16.6162V76.1776ZM21.898 76.1776H24.539V78.705H21.898V76.1776ZM24.539 76.1776H27.1799V78.705H24.539V76.1776ZM27.1799 76.1776H29.8209V78.705H27.1799V76.1776ZM29.8209 76.1776H32.4618V78.705H29.8209V76.1776ZM32.4618 76.1776H35.1027V78.705H32.4618V76.1776ZM35.1027 76.1776H37.7437V78.705H35.1027V76.1776ZM37.7437 76.1776H40.3846V78.705H37.7437V76.1776ZM40.3846 76.1776H43.0256V78.705H40.3846V76.1776ZM45.6665 76.1776H48.3074V78.705H45.6665V76.1776ZM48.3074 76.1776H50.9484V78.705H48.3074V76.1776ZM53.5893 76.1776H56.2303V78.705H53.5893V76.1776ZM56.2303 76.1776H58.8712V78.705H56.2303V76.1776ZM58.8712 76.1776H61.5121V78.705H58.8712V76.1776ZM64.1531 76.1776H66.794V78.705H64.1531V76.1776ZM66.794 76.1776H69.435V78.705H66.794V76.1776ZM69.435 76.1776H72.0759V78.705H69.435V76.1776ZM72.0759 76.1776H74.7169V78.705H72.0759V76.1776ZM77.3578 76.1776H79.9987V78.705H77.3578V76.1776ZM79.9987 76.1776H82.6397V78.705H79.9987V76.1776ZM0.770508 78.705H3.41145V81.2323H0.770508V78.705ZM16.6162 78.705H19.2571V81.2323H16.6162V78.705ZM21.898 78.705H24.539V81.2323H21.898V78.705ZM24.539 78.705H27.1799V81.2323H24.539V78.705ZM27.1799 78.705H29.8209V81.2323H27.1799V78.705ZM29.8209 78.705H32.4618V81.2323H29.8209V78.705ZM35.1027 78.705H37.7437V81.2323H35.1027V78.705ZM37.7437 78.705H40.3846V81.2323H37.7437V78.705ZM40.3846 78.705H43.0256V81.2323H40.3846V78.705ZM43.0256 78.705H45.6665V81.2323H43.0256V78.705ZM45.6665 78.705H48.3074V81.2323H45.6665V78.705ZM48.3074 78.705H50.9484V81.2323H48.3074V78.705ZM53.5893 78.705H56.2303V81.2323H53.5893V78.705ZM61.5121 78.705H64.1531V81.2323H61.5121V78.705ZM64.1531 78.705H66.794V81.2323H64.1531V78.705ZM66.794 78.705H69.435V81.2323H66.794V78.705ZM72.0759 78.705H74.7169V81.2323H72.0759V78.705ZM74.7169 78.705H77.3578V81.2323H74.7169V78.705ZM85.2806 78.705H87.9216V81.2323H85.2806V78.705ZM0.770508 81.2323H3.41145V83.7597H0.770508V81.2323ZM3.41145 81.2323H6.05239V83.7597H3.41145V81.2323ZM6.05239 81.2323H8.69333V83.7597H6.05239V81.2323ZM8.69333 81.2323H11.3343V83.7597H8.69333V81.2323ZM11.3343 81.2323H13.9752V83.7597H11.3343V81.2323ZM13.9752 81.2323H16.6162V83.7597H13.9752V81.2323ZM16.6162 81.2323H19.2571V83.7597H16.6162V81.2323ZM24.539 81.2323H27.1799V83.7597H24.539V81.2323ZM27.1799 81.2323H29.8209V83.7597H27.1799V81.2323ZM29.8209 81.2323H32.4618V83.7597H29.8209V81.2323ZM32.4618 81.2323H35.1027V83.7597H32.4618V81.2323ZM40.3846 81.2323H43.0256V83.7597H40.3846V81.2323ZM43.0256 81.2323H45.6665V83.7597H43.0256V81.2323ZM45.6665 81.2323H48.3074V83.7597H45.6665V81.2323ZM50.9484 81.2323H53.5893V83.7597H50.9484V81.2323ZM56.2303 81.2323H58.8712V83.7597H56.2303V81.2323ZM61.5121 81.2323H64.1531V83.7597H61.5121V81.2323ZM66.794 81.2323H69.435V83.7597H66.794V81.2323ZM74.7169 81.2323H77.3578V83.7597H74.7169V81.2323ZM79.9987 81.2323H82.6397V83.7597H79.9987V81.2323Z" fill="#1C2129"/>
</svg>
