<svg width="26" height="26" viewBox="0 0 26 26" fill="none"  xmlns="http://www.w3.org/2000/svg">
<path d="M13.25 25.5C20.1552 25.5 25.75 19.9052 25.75 13C25.75 6.09479 20.1552 0.5 13.25 0.5C6.34479 0.5 0.75 6.09479 0.75 13C0.75 19.9052 6.34479 25.5 13.25 25.5ZM6.46979 12.7292L18.5219 8.08229C19.0812 7.88021 19.5698 8.21875 19.3885 9.06458L19.3896 9.06354L17.3375 18.7313C17.1854 19.4167 16.7781 19.5833 16.2083 19.2604L13.0833 16.9573L11.576 18.4094C11.4094 18.576 11.2687 18.7167 10.9458 18.7167L11.1677 15.5365L16.9594 10.3042C17.2115 10.0823 16.9031 9.95729 16.5708 10.1781L9.41354 14.6844L6.32812 13.7219C5.65833 13.5094 5.64375 13.0521 6.46979 12.7292Z" fill="#71b00a" />
</svg>
