<svg width="151" height="72" viewBox="0 0 151 72" fill="none" xmlns="http://www.w3.org/2000/svg">
<ellipse cx="35.5486" cy="35.7934" rx="23.7492" ry="24.0374" fill="url(#paint0_linear_8608_55371)"/>
<path fill-rule="evenodd" clip-rule="evenodd" d="M8.73896 44.3468C9.14964 43.8327 9.94399 43.91 10.2687 44.4823C10.4736 44.8435 10.4185 45.2947 10.145 45.6071C8.52938 47.452 7.8321 48.8875 8.29597 49.7051C9.78451 52.3288 22.6663 47.5963 37.0682 39.1348C37.5644 38.8432 38.056 38.551 38.5426 38.2585C38.7132 38.1559 38.8113 37.9675 38.8113 37.7685C38.8113 34.3998 41.5093 31.669 44.8376 31.669C46.6205 31.669 48.5544 31.7226 49.9867 30.661C57.17 25.3369 61.4366 20.8024 60.4499 19.0634C60.0085 18.2853 58.5651 18.1542 56.3772 18.5754C55.9746 18.6529 55.5628 18.4737 55.3605 18.1171C55.0462 17.5631 55.3707 16.8639 56.0007 16.7707C60.3102 16.1331 63.367 16.6666 64.4387 18.5555C66.4463 22.094 60.9231 29.3934 51.3076 36.816C51.0163 37.0408 50.8639 37.4005 50.8639 37.7685C50.8639 41.1371 48.1659 43.868 44.8376 43.868C44.6722 43.868 44.5083 43.8612 44.3463 43.848C42.8608 43.7267 41.2772 43.6635 39.9922 44.4185C23.7881 53.9388 8.46131 57.7949 5.75874 53.0314C4.65068 51.0784 5.83681 47.9796 8.73896 44.3468Z" fill="#5A78A6"/>
<ellipse cx="44.8376" cy="37.7685" rx="3.01318" ry="3.04975" fill="#70AF09"/>
<g opacity="0.32">
<path d="M23.3783 27.5725C21.9167 31.2253 22.3778 35.0773 20.5851 34.3425C18.7924 33.6077 18.524 30.0508 19.9856 26.398C21.4472 22.7452 24.0853 20.3797 25.878 21.1145C27.6707 21.8494 24.8399 23.9197 23.3783 27.5725Z" fill="#E5E5E5"/>
<path d="M22.253 37.9714C22.3836 39.1743 21.8333 40.2224 21.0239 40.3124C20.2145 40.4024 19.4525 39.5002 19.3219 38.2973C19.1913 37.0944 19.7416 36.0463 20.551 35.9563C21.3604 35.8663 22.1224 36.7685 22.253 37.9714Z" fill="#E5E5E5"/>
</g>
<path d="M28.5367 54.1056C27.7115 53.6231 28.107 52.8142 30.1116 52.1418C34.3383 51.2027 33.6251 53.1011 39.7074 52.3707C45.7897 51.6404 48.9962 49.1025 50.6113 47.433C51.9034 46.0974 53.0977 44.2901 53.0404 44.9277C52.7655 46.2842 50.5456 49.8596 43.8654 53.3098C35.5151 57.6226 29.8022 54.8456 28.5367 54.1056Z" fill="#080F1B" fill-opacity="0.11"/>
<path d="M55.4067 22.4741C56.1842 21.9526 56.4017 20.8983 55.8387 20.1502C52.2122 15.3311 47.0124 11.9406 41.138 10.6052C34.7168 9.14544 27.9866 10.2544 22.3543 13.7001C16.7221 17.1459 12.6237 22.6618 10.916 29.0947C9.35656 34.9693 9.90099 41.1935 12.4196 46.6763C12.816 47.5392 13.8684 47.8421 14.6985 47.3808C15.5167 46.926 15.8096 45.8995 15.4263 45.0456C13.3132 40.3382 12.8698 35.0159 14.2043 29.9889C15.684 24.4147 19.2352 19.6352 24.1156 16.6494C28.996 13.6636 34.8278 12.7027 40.3919 13.9676C45.3965 15.1052 49.836 17.9644 52.9705 22.0288C53.5513 22.782 54.6168 23.0039 55.4067 22.4741Z" fill="#5A78A6"/>
<path d="M20.9982 54.8702C20.4253 55.6212 20.5566 56.7003 21.3318 57.227C24.9858 59.71 29.2215 61.1993 33.6292 61.536C38.5993 61.9156 43.5705 60.813 47.9283 58.3645C52.2862 55.9159 55.8397 52.2287 58.1498 47.7585C60.1985 43.7941 61.1896 39.368 61.04 34.9161C61.0083 33.9715 60.1731 33.2881 59.2406 33.383C58.3021 33.4785 57.6223 34.3258 57.644 35.2768C57.7302 39.0521 56.8706 42.7984 55.1327 46.1613C53.131 50.0348 50.0518 53.2298 46.2757 55.3514C42.4996 57.4731 38.1921 58.4285 33.8854 58.0996C30.1461 57.814 26.5498 56.571 23.4294 54.5C22.6439 53.9787 21.5744 54.1147 20.9982 54.8702Z" fill="#5A78A6"/>
<path d="M75.0718 53.9451C74.4896 53.9451 74.1985 53.7879 74.1985 53.4737V44.1926C74.1985 43.9863 74.2422 43.839 74.3295 43.7506C74.4265 43.6524 74.5769 43.6033 74.7807 43.6033H79.5694C79.7246 43.6033 79.8362 43.6622 79.9041 43.7801C79.9721 43.898 80.006 44.0846 80.006 44.3399V44.7966C80.006 45.0519 79.9721 45.2386 79.9041 45.3564C79.8362 45.4743 79.7246 45.5332 79.5694 45.5332H76.44V48.126H79.4675C79.6227 48.126 79.7343 48.1849 79.8022 48.3028C79.8702 48.4206 79.9041 48.6072 79.9041 48.8626V49.3193C79.9041 49.5746 79.8702 49.7612 79.8022 49.8791C79.7343 49.9969 79.6227 50.0559 79.4675 50.0559H76.44V53.4737C76.44 53.7879 76.1489 53.9451 75.5667 53.9451H75.0718Z" fill="#7FB02E"/>
<path d="M84.2551 53.9451C83.6729 53.9451 83.3818 53.7879 83.3818 53.4737V44.1926C83.3818 43.9863 83.4255 43.839 83.5128 43.7506C83.6098 43.6524 83.7602 43.6033 83.964 43.6033H86.8023C89.2184 43.6033 90.4265 44.5265 90.4265 46.3729C90.4265 46.9229 90.2713 47.4041 89.9608 47.8166C89.66 48.2193 89.2476 48.5188 88.7236 48.7153V48.7742C88.9079 48.8429 89.0971 49.0099 89.2912 49.2751C89.4853 49.5304 89.6454 49.8153 89.7715 50.1295L91.0524 53.3705C91.1009 53.4982 91.1252 53.5915 91.1252 53.6504C91.1252 53.7388 91.0524 53.8125 90.9068 53.8714C90.7613 53.9205 90.543 53.9451 90.2519 53.9451H89.6551C89.1796 53.9451 88.8982 53.842 88.8109 53.6357L87.661 50.763C87.4961 50.4389 87.3166 50.213 87.1225 50.0853C86.9381 49.9478 86.6276 49.8791 86.191 49.8791H85.6233V53.4737C85.6233 53.7879 85.3322 53.9451 84.75 53.9451H84.2551ZM87.0061 47.9198C87.3069 47.9198 87.5689 47.797 87.792 47.5515C88.0152 47.3059 88.1268 47.0064 88.1268 46.6528C88.1268 46.3091 88.0152 46.039 87.792 45.8426C87.5786 45.6363 87.2826 45.5332 86.9042 45.5332H85.6233V47.9198H87.0061Z" fill="#7FB02E"/>
<path d="M94.9292 53.9156C94.7254 53.9156 94.575 53.8714 94.478 53.783C94.3907 53.6848 94.347 53.5326 94.347 53.3263V44.1926C94.347 43.9863 94.3907 43.839 94.478 43.7506C94.575 43.6524 94.7254 43.6033 94.9292 43.6033H100.038C100.193 43.6033 100.305 43.6622 100.373 43.7801C100.441 43.898 100.475 44.0846 100.475 44.3399V44.7966C100.475 45.0519 100.441 45.2386 100.373 45.3564C100.305 45.4743 100.193 45.5332 100.038 45.5332H96.5885V47.6693H99.6451C99.8003 47.6693 99.9119 47.7282 99.9799 47.8461C100.048 47.9639 100.082 48.1506 100.082 48.4059V48.8626C100.082 49.1179 100.048 49.3045 99.9799 49.4224C99.9119 49.5403 99.8003 49.5992 99.6451 49.5992H96.5885V51.9857H100.053C100.208 51.9857 100.319 52.0447 100.387 52.1625C100.455 52.2804 100.489 52.467 100.489 52.7223V53.179C100.489 53.4344 100.455 53.621 100.387 53.7388C100.319 53.8567 100.208 53.9156 100.053 53.9156H94.9292Z" fill="#7FB02E"/>
<path d="M104.84 53.9156C104.636 53.9156 104.486 53.8714 104.389 53.783C104.301 53.6848 104.258 53.5326 104.258 53.3263V44.1926C104.258 43.9863 104.301 43.839 104.389 43.7506C104.486 43.6524 104.636 43.6033 104.84 43.6033H109.949C110.104 43.6033 110.216 43.6622 110.283 43.7801C110.351 43.898 110.385 44.0846 110.385 44.3399V44.7966C110.385 45.0519 110.351 45.2386 110.283 45.3564C110.216 45.4743 110.104 45.5332 109.949 45.5332H106.499V47.6693H109.556C109.711 47.6693 109.823 47.7282 109.89 47.8461C109.958 47.9639 109.992 48.1506 109.992 48.4059V48.8626C109.992 49.1179 109.958 49.3045 109.89 49.4224C109.823 49.5403 109.711 49.5992 109.556 49.5992H106.499V51.9857H109.963C110.119 51.9857 110.23 52.0447 110.298 52.1625C110.366 52.2804 110.4 52.467 110.4 52.7223V53.179C110.4 53.4344 110.366 53.621 110.298 53.7388C110.23 53.8567 110.119 53.9156 109.963 53.9156H104.84Z" fill="#7FB02E"/>
<path d="M122.628 53.9451C122.153 53.9451 121.881 53.842 121.813 53.6357L118.669 44.1631C118.63 44.0256 118.611 43.9372 118.611 43.898C118.611 43.6819 118.907 43.5739 119.499 43.5739H120.008C120.493 43.5739 120.78 43.7163 120.867 44.0011L122.672 49.8496C122.856 50.4487 122.963 50.8956 122.992 51.1902H123.05C123.079 50.8956 123.186 50.4487 123.371 49.8496L125.234 44.0011C125.331 43.7163 125.617 43.5739 126.092 43.5739H126.514C127.097 43.5739 127.388 43.6819 127.388 43.898C127.388 43.9667 127.373 44.0551 127.344 44.1631L124.2 53.6357C124.132 53.842 123.861 53.9451 123.385 53.9451H122.628Z" fill="#7FB02E"/>
<path d="M131.335 53.9451C130.753 53.9451 130.462 53.7879 130.462 53.4737V44.1926C130.462 43.9863 130.505 43.839 130.593 43.7506C130.69 43.6524 130.84 43.6033 131.044 43.6033H134.1C135.013 43.6033 135.818 43.8292 136.517 44.281C137.215 44.7229 137.565 45.5725 137.565 46.8296C137.565 47.6939 137.361 48.3666 136.953 48.8479C136.546 49.3193 136.09 49.6385 135.585 49.8054C135.081 49.9724 134.634 50.0559 134.246 50.0559H132.703V53.4737C132.703 53.7879 132.412 53.9451 131.83 53.9451H131.335ZM133.999 48.1113C134.348 48.1113 134.644 48.018 134.886 47.8314C135.139 47.6448 135.265 47.3108 135.265 46.8296C135.265 46.3484 135.139 46.0144 134.886 45.8278C134.644 45.6314 134.348 45.5332 133.999 45.5332H132.703V48.1113H133.999Z" fill="#7FB02E"/>
<path d="M141.601 53.9451C141.019 53.9451 140.728 53.7879 140.728 53.4737V44.0453C140.728 43.731 141.019 43.5739 141.601 43.5739H142.227C142.46 43.5739 142.654 43.6033 142.809 43.6622C142.964 43.7113 143.09 43.8145 143.187 43.9716L146.462 49.0836C146.656 49.3684 146.831 49.6581 146.986 49.9527L147.045 49.938C147.025 49.7121 147.015 49.3782 147.015 48.9363V44.0453C147.015 43.731 147.307 43.5739 147.889 43.5739H148.311C148.893 43.5739 149.184 43.731 149.184 44.0453V53.4737C149.184 53.7879 148.893 53.9451 148.311 53.9451H147.758C147.525 53.9451 147.331 53.9205 147.176 53.8714C147.02 53.8125 146.894 53.7045 146.797 53.5473L143.449 48.3617C143.255 48.0769 143.081 47.7872 142.925 47.4925L142.867 47.5073C142.887 47.7331 142.896 48.0671 142.896 48.509V53.4737C142.896 53.7879 142.605 53.9451 142.023 53.9451H141.601Z" fill="#7FB02E"/>
<path d="M75.8435 38.4098C74.7468 38.4098 74.1985 38.1139 74.1985 37.5219V20.0397C74.1985 19.6512 74.2807 19.3737 74.4452 19.2072C74.628 19.0222 74.9113 18.9297 75.2952 18.9297H81.0527C82.7708 18.9297 84.2878 19.3552 85.6038 20.2062C86.9198 21.0387 87.5778 22.6389 87.5778 25.0069C87.5778 26.6348 87.194 27.9021 86.4263 28.8085C85.6587 29.6965 84.7996 30.2978 83.8492 30.6123C82.8987 30.9267 82.0579 31.084 81.3268 31.084H78.4207V37.5219C78.4207 38.1139 77.8723 38.4098 76.7757 38.4098H75.8435ZM80.8607 27.4211C81.5187 27.4211 82.0762 27.2453 82.5332 26.8938C83.0084 26.5423 83.246 25.9134 83.246 25.0069C83.246 24.1004 83.0084 23.4714 82.5332 23.1199C82.0762 22.7499 81.5187 22.5649 80.8607 22.5649H78.4207V27.4211H80.8607Z" fill="#5A78A6"/>
<path d="M93.6729 38.5763C91.0043 38.5763 89.6701 37.0779 89.6701 34.0809V18.3193C89.6701 17.7273 90.2184 17.4313 91.3151 17.4313H92.0827C93.1794 17.4313 93.7277 17.7273 93.7277 18.3193V34.1364C93.7277 34.5619 93.8008 34.8672 93.9471 35.0522C94.1116 35.2372 94.3675 35.3297 94.7147 35.3297C94.8061 35.3297 94.9249 35.3112 95.0712 35.2742C95.2357 35.2372 95.3636 35.2187 95.455 35.2187C95.6195 35.2187 95.7657 35.3574 95.8937 35.6349C96.0216 35.9124 96.1221 36.2176 96.1952 36.5506C96.2684 36.8836 96.3049 37.1056 96.3049 37.2166C96.3049 38.1231 95.4276 38.5763 93.6729 38.5763Z" fill="#5A78A6"/>
<path d="M101.291 38.5763C99.8839 38.5763 98.8512 38.2063 98.1932 37.4664C97.5535 36.7264 97.2336 35.7459 97.2336 34.5249C97.2336 33.045 97.7637 31.8147 98.8238 30.8342C99.9022 29.8538 101.995 29.3635 105.102 29.3635V28.4478C105.102 27.9113 104.929 27.5136 104.581 27.2546C104.252 26.9956 103.713 26.8661 102.964 26.8661C102.342 26.8661 101.794 26.9308 101.319 27.0603C100.862 27.1898 100.451 27.3378 100.085 27.5043C99.7194 27.6708 99.5092 27.7541 99.4544 27.7541C99.2716 27.7541 99.0706 27.6153 98.8512 27.3378C98.6319 27.0603 98.44 26.7458 98.2755 26.3943C98.111 26.0243 98.0287 25.7376 98.0287 25.5341C98.0287 25.2196 98.2572 24.9144 98.7141 24.6184C99.1711 24.3224 99.8017 24.0819 100.606 23.8969C101.41 23.7119 102.297 23.6194 103.265 23.6194C105.331 23.6194 106.829 24.0356 107.762 24.8681C108.694 25.6821 109.16 26.8106 109.16 28.2536V33.4704C109.16 34.3214 109.178 34.9689 109.215 35.4129C109.27 35.8569 109.334 36.3471 109.407 36.8836C109.461 37.1241 109.489 37.3276 109.489 37.4941C109.489 37.7901 109.114 38.0121 108.365 38.1601C107.634 38.3081 106.985 38.3821 106.418 38.3821C106.089 38.3821 105.861 38.2526 105.733 37.9936C105.605 37.7161 105.504 37.4201 105.431 37.1056C105.376 36.7911 105.34 36.5784 105.322 36.4674C105.212 36.6709 104.993 36.9391 104.664 37.2721C104.335 37.5866 103.878 37.8826 103.293 38.1601C102.708 38.4376 102.041 38.5763 101.291 38.5763ZM102.635 35.3297C103.147 35.3297 103.631 35.1632 104.088 34.8302C104.545 34.4972 104.883 34.0809 105.102 33.5814V32.0552C102.543 32.0552 101.264 32.7397 101.264 34.1087C101.264 34.4787 101.383 34.7747 101.62 34.9967C101.858 35.2187 102.196 35.3297 102.635 35.3297Z" fill="#5A78A6"/>
<path d="M114.367 38.4098C113.27 38.4098 112.722 38.1139 112.722 37.5219V28.7253C112.722 27.9113 112.695 27.2916 112.64 26.8661C112.603 26.4221 112.548 25.9318 112.475 25.3954C112.42 25.1364 112.393 24.9421 112.393 24.8126C112.393 24.5166 112.758 24.2946 113.49 24.1466C114.239 23.9986 114.897 23.9246 115.464 23.9246C115.793 23.9246 116.021 24.0541 116.149 24.3131C116.277 24.5536 116.368 24.8219 116.423 25.1179C116.496 25.4139 116.542 25.6174 116.56 25.7284C116.999 25.1364 117.584 24.6369 118.315 24.2299C119.046 23.8229 119.823 23.6194 120.645 23.6194C122.016 23.6194 123.031 23.9894 123.689 24.7294C124.347 25.4509 124.676 26.5793 124.676 28.1148V37.5219C124.676 38.1139 124.127 38.4098 123.031 38.4098H122.263C121.166 38.4098 120.618 38.1139 120.618 37.5219V28.7253C120.618 28.1518 120.49 27.7263 120.234 27.4488C119.978 27.1528 119.558 27.0048 118.973 27.0048C118.479 27.0048 118.041 27.1713 117.657 27.5043C117.291 27.8188 116.999 28.1888 116.78 28.6143V37.5219C116.78 38.1139 116.231 38.4098 115.135 38.4098H114.367Z" fill="#5A78A6"/>
<path d="M134.591 38.5763C132.178 38.5763 130.378 37.9289 129.19 36.6339C128.02 35.3204 127.435 33.5074 127.435 31.195C127.435 28.5865 128.02 26.6718 129.19 25.4509C130.378 24.2299 132.013 23.6194 134.097 23.6194C136.126 23.6194 137.616 24.2854 138.566 25.6174C139.535 26.9493 140.019 28.6698 140.019 30.7788C140.019 31.0007 139.827 31.3337 139.443 31.7777C139.078 32.2032 138.804 32.416 138.621 32.416H131.63C131.721 33.4704 132.032 34.2197 132.562 34.6637C133.092 35.1077 133.832 35.3297 134.783 35.3297C135.294 35.3297 135.76 35.2742 136.181 35.1632C136.601 35.0337 137.04 34.8764 137.497 34.6914C137.789 34.5434 137.99 34.4694 138.1 34.4694C138.283 34.4694 138.484 34.6082 138.703 34.8857C138.941 35.1447 139.133 35.4499 139.279 35.8014C139.443 36.1344 139.526 36.3934 139.526 36.5784C139.526 37.0039 139.242 37.3739 138.676 37.6884C138.109 37.9844 137.433 38.2063 136.647 38.3543C135.861 38.5023 135.175 38.5763 134.591 38.5763ZM136.071 29.6688C136.071 28.8178 135.907 28.1426 135.578 27.6431C135.249 27.1251 134.755 26.8661 134.097 26.8661C132.745 26.8661 131.922 27.8003 131.63 29.6688H136.071Z" fill="#5A78A6"/>
<path d="M147.177 38.5763C144.508 38.5763 143.174 37.0779 143.174 34.0809V27.0881H142.735C142.443 27.0881 142.232 26.9771 142.104 26.7551C141.977 26.5331 141.913 26.1816 141.913 25.7006V25.2289C141.913 24.7479 141.977 24.3964 142.104 24.1744C142.232 23.9524 142.443 23.8414 142.735 23.8414H143.174L143.53 21.2052C143.622 20.6132 144.115 20.3172 145.011 20.3172H145.861C146.774 20.3172 147.231 20.6132 147.231 21.2052V23.8414H148.575C148.867 23.8414 149.077 23.9524 149.205 24.1744C149.333 24.3964 149.397 24.7479 149.397 25.2289V25.7006C149.397 26.1816 149.333 26.5331 149.205 26.7551C149.077 26.9771 148.867 27.0881 148.575 27.0881H147.231V34.1364C147.231 34.5619 147.305 34.8672 147.451 35.0522C147.615 35.2372 147.871 35.3297 148.218 35.3297C148.31 35.3297 148.429 35.3112 148.575 35.2742C148.739 35.2372 148.867 35.2187 148.959 35.2187C149.123 35.2187 149.269 35.3574 149.397 35.6349C149.525 35.9124 149.626 36.2176 149.699 36.5506C149.772 36.8836 149.809 37.1056 149.809 37.2166C149.809 38.1231 148.931 38.5763 147.177 38.5763Z" fill="#5A78A6"/>
<defs>
<linearGradient id="paint0_linear_8608_55371" x1="10.3628" y1="-5.31661" x2="46.9386" y2="56.2505" gradientUnits="userSpaceOnUse">
<stop offset="0.394669" stop-color="#E35959"/>
<stop offset="0.72037" stop-color="#E26630"/>
<stop offset="0.749987" stop-color="#95DB24"/>
</linearGradient>
</defs>
</svg>
